<svg version="1.0" xmlns="http://www.w3.org/2000/svg"
 width="281.000000pt" height="242.000000pt" viewBox="0 0 281.000000 242.000000"
 preserveAspectRatio="xMidYMid meet">

<g transform="translate(0.000000,242.000000) scale(0.100000,-0.100000)"
fill="#000000" stroke="none">
<path d="M693 2408 c-6 -7 -164 -280 -353 -606 l-342 -592 348 -603 349 -602
705 -2 705 -3 345 596 c190 328 345 604 345 614 0 10 -155 286 -345 614 l-345
596 -701 0 c-549 0 -704 -3 -711 -12z m787 -468 c267 -32 456 -166 540 -383
84 -216 75 -519 -21 -708 -69 -138 -166 -230 -314 -299 -137 -65 -193 -73
-512 -78 l-283 -4 0 741 0 741 253 0 c139 0 291 -5 337 -10z"/>
<path d="M1180 1210 l0 -450 118 0 c219 0 351 62 426 199 70 130 74 378 6 510
-69 137 -189 191 -422 191 l-128 0 0 -450z"/>
</g>
</svg>